<svg width="260" height="260" viewBox="0 0 260 260" fill="none" xmlns="http://www.w3.org/2000/svg">
<path d="M173.616 68.8811L188.912 70.1368L162.264 100.177L146.872 99.211L173.616 68.8811Z" fill="#CF1800"/>
<path d="M171.981 129.058L118.781 188.751L134.27 189.138L160.533 159.291L186.796 129.347L171.981 129.058Z" fill="#CF1800"/>
<path d="M188.913 70.1367L162.265 100.177L186.701 129.541L134.271 189.138L159.283 218.888L185.546 189.138L238.746 129.251L188.913 70.1367Z" fill="#FF6600"/>
<path d="M118.781 188.751L143.698 218.019L159.282 218.888L134.27 189.138L118.781 188.751Z" fill="#0D0D4A"/>
<path d="M146.872 99.2109L171.981 129.058L186.7 129.541L162.264 100.177L146.872 99.2109Z" fill="#0D0D4A"/>
<path d="M136.483 70.2332L111.855 41.0625L85.3036 70.8128L32.7773 129.927L82.8985 189.428L109.354 159.774L84.1491 129.927L110.508 100.563L136.483 70.2332Z" fill="#0059DE"/>
<path d="M84.1484 129.927L110.508 100.563L135.424 130.41L109.353 159.774L84.1484 129.927Z" fill="#4ED9C4"/>
<path d="M32.7771 129.927L17 128.961L66.3516 188.172L82.8983 189.428L32.7771 129.927Z" fill="#0D0D4A"/>
<path d="M95.7893 40L17 128.961L32.7771 129.927L111.855 41.0625L95.7893 40Z" fill="#003480"/>
</svg>
