<svg xmlns="http://www.w3.org/2000/svg" viewBox="0 0 537.3 141.3" xml:space="preserve"><path d="M298.9 108.4h-13.8V72.6h-36.4v35.8h-13.6v-82h13.6v35.1h36.4V26.4h13.8v82zm62.8-29.3c0 5.4-.5 9.9-1.6 13.5s-3.1 6.8-5.9 9.6c-4.9 4.6-11.3 6.9-19.2 6.9-7.8 0-14.2-2.3-19.1-6.9-2.9-2.8-4.8-5.9-5.9-9.6-1.1-3.6-1.6-8.1-1.6-13.5 0-5.3.5-9.8 1.6-13.4s3.1-6.8 5.9-9.5c4.9-4.6 11.2-6.9 19.1-6.9s14.3 2.3 19.2 6.9c2.9 2.7 4.8 5.9 5.9 9.5 1 3.7 1.6 8.1 1.6 13.4zm-12.9 0c0-8-1.5-13.3-4.4-16-2.4-2.2-5.6-3.3-9.5-3.3-3.8 0-6.9 1.1-9.3 3.3-2.9 2.7-4.4 8-4.4 16s1.5 13.3 4.4 16c2.5 2.3 5.6 3.5 9.3 3.5 3.8 0 6.9-1.2 9.5-3.5 2.9-2.6 4.4-8 4.4-16zm71.8 12.8c0 5.1-1.7 9.1-5.2 12-3.5 3-8.2 4.4-14.1 4.4h-31.7V50h30.7c5.9 0 10.6 1.4 14.1 4.3 3.5 2.8 5.2 6.6 5.2 11.4 0 5.8-3 10-9 12.6 6.7 2.7 10 7.3 10 13.6zM407 66.5c0-2.3-.8-4.1-2.5-5.4-1.6-1.3-4-1.9-7-1.9h-15.1v14.7h15.1c6.3.1 9.5-2.4 9.5-7.4zm1 24.6c0-2.5-.9-4.5-2.6-5.9s-4.1-2.1-7.1-2.1h-15.9v16.1h15.9c3 0 5.4-.7 7.1-2.2 1.7-1.5 2.6-3.4 2.6-5.9zm71.3-8.5h-41.5c0 5.1 1.4 9.2 4.2 12 2.8 2.9 6.8 4.3 12.1 4.3 3.4 0 6.3-.5 8.6-1.4 2.3-.9 4.6-2.5 6.9-4.6l8.2 7c-3.5 3.1-7 5.5-10.5 6.9-3.6 1.5-8.1 2.2-13.4 2.2-8.8 0-15.7-2.4-21-7.1-5.2-4.8-7.8-12.4-7.8-22.8 0-9.4 2.4-16.7 7.3-21.9 4.9-5.3 11.5-7.9 19.8-7.9 8.5 0 15.2 2.6 19.9 7.7 4.8 5.1 7.2 12 7.2 20.6v5zm-12.7-8.2c-.3-3.5-.8-6.1-1.8-7.9-2.4-4.9-6.6-7.4-12.6-7.4-6.1 0-10.3 2.5-12.8 7.4-1 2-1.6 4.6-1.6 7.9h28.8zm70.7 4.7c0 5.4-.5 9.9-1.6 13.5s-3.1 6.8-5.9 9.6c-4.9 4.6-11.3 6.9-19.2 6.9-7.8 0-14.2-2.3-19.1-6.9-2.9-2.8-4.8-5.9-5.9-9.6-1.1-3.6-1.6-8.1-1.6-13.5 0-5.3.5-9.8 1.6-13.4 1.1-3.6 3.1-6.8 5.9-9.5 4.9-4.6 11.2-6.9 19.1-6.9 7.9 0 14.3 2.3 19.2 6.9 2.9 2.7 4.8 5.9 5.9 9.5 1 3.7 1.6 8.1 1.6 13.4zm-12.9 0c0-8-1.5-13.3-4.4-16-2.4-2.2-5.6-3.3-9.5-3.3-3.8 0-6.9 1.1-9.3 3.3-2.9 2.7-4.4 8-4.4 16s1.5 13.3 4.4 16c2.5 2.3 5.6 3.5 9.3 3.5 3.8 0 6.9-1.2 9.5-3.5 2.9-2.6 4.4-8 4.4-16z" style="fill:#0d0d4a"/><path fill="#4ed9c4" d="M70.6679972 47.09488832 94.21424204 70.6419551 70.66717526 94.18819994 47.12093042 70.64113316z"/><path fill="#f60" d="m141.3 23.6-23.5 23.5 23.5 23.6-47.1 47.1 23.6 23.5 70.6-70.6z"/><path fill="#0059de" d="M94.2 23.6 70.7 0 0 70.7l47.1 47.1 23.6-23.6-23.6-23.5z"/></svg>